<svg width="60" height="60" viewBox="0 0 60 60" fill="none" xmlns="http://www.w3.org/2000/svg">
<path d="M54.0451 5.95494C50.1824 2.12446 45.0966 0 39.6566 0C34.2167 0 29.1309 2.12446 25.2682 5.95494C22.2747 8.9485 20.3111 12.7468 19.603 16.8348C19.5386 17.2532 19.4742 17.6717 19.442 18.0901C19.4099 18.5086 19.3777 18.927 19.3455 19.3455C19.3133 19.6674 19.3133 20.0215 19.3133 20.3433V23.1116V24.367V25.6223V40.7189H34.4099H35.6652H36.9206C36.9528 40.3648 36.9528 40.0429 36.9528 39.6888V36.9528H35.6974H23.0794V25.5901V23.1116V20.3755C23.0794 20.0215 23.0794 19.6996 23.1116 19.3455C23.1438 18.927 23.176 18.5086 23.2403 18.0901C23.3047 17.6717 23.3691 17.2532 23.4657 16.8348C24.1416 13.6803 25.7511 10.8476 27.9399 8.62661C30.9335 5.63305 35.0858 3.76609 39.6566 3.76609C48.7983 3.76609 56.2339 11.2017 56.2339 20.3433C56.2339 24.9142 54.3669 29.0665 51.3734 32.0601C49.1524 34.2811 46.3197 35.8584 43.1652 36.5343V36.8884V39.6567C43.1652 39.9142 43.1652 40.1395 43.1652 40.397C47.2532 39.6888 51.0515 37.7253 54.0451 34.7318C57.8755 30.9013 60 25.7833 60 20.3433C60 14.9034 57.8755 9.78541 54.0451 5.95494Z" fill="#F7654A"/>
<path d="M22.6899 23.7025H23.924H25.1582H36.3291V34.8734V36.1076V37.3418V40.0316C36.3291 40.3797 36.3291 40.6962 36.2975 41.0443C36.2658 41.4557 36.2342 41.8671 36.1709 42.2785C36.1076 42.6899 36.0443 43.1013 35.9494 43.5127C35.2848 46.6139 33.7025 49.3987 31.5506 51.5823C28.6076 54.5253 24.5253 56.3608 20.0316 56.3608C11.0443 56.3608 3.73418 49.0506 3.73418 40.0633C3.73418 35.5696 5.56962 31.4873 8.51266 28.5443C10.6962 26.3608 13.481 24.8101 16.5823 24.1456V21.0759C16.5823 20.8228 16.5823 20.6013 16.5823 20.3481C12.5633 21.0443 8.82911 22.9747 5.88608 25.9177C2.08861 29.6203 0 34.6519 0 40C0 45.3481 2.08861 50.3481 5.85443 54.1456C9.62025 57.9114 14.6519 60 20 60C25.3481 60 30.3481 57.9114 34.1456 54.1456C37.6899 50.6013 39.7468 45.9494 39.9684 40.981C39.9684 40.8228 39.9684 40.6646 40 40.5063C40 40.4114 40 40.3481 40 40.2532C40 40.1582 40 40.0949 40 40V37.2785V20H25.1582H23.924H22.6899C22.6582 20.3481 22.6582 20.6646 22.6582 21.0127L22.6899 23.7025Z" fill="#F7654A"/>
</svg>
